<mxfile host="app.diagrams.net" modified="2023-05-22T10:04:41.201Z" agent="Mozilla/5.0 (Macintosh; Intel Mac OS X 10_15_7) AppleWebKit/537.36 (KHTML, like Gecko) Chrome/112.0.0.0 Safari/537.36" version="21.3.2" etag="8fiRh7Cr3v5LjPd77q3S" type="github">
  <diagram name="第 1 页" id="Sb8IfFbc-LcTbjm1359P">
    <mxGraphModel>
      <root>
        <mxCell id="0" />
        <mxCell id="1" parent="0" />
      </root>
    </mxGraphModel>
  </diagram>
</mxfile>
